<?xml version="1.0" encoding="utf-8"?>
<!-- Generator: Adobe Illustrator 26.0.3, SVG Export Plug-In . SVG Version: 6.00 Build 0)  -->
<svg version="1.1" id="Réteg_1" xmlns="http://www.w3.org/2000/svg" xmlns:xlink="http://www.w3.org/1999/xlink" x="0px" y="0px"
	 viewBox="0 0 60 60" style="enable-background:new 0 0 60 60;" xml:space="preserve">
<style type="text/css">
	.st0{fill:#1D1D1B;}
</style>
<g>
	<path class="st0" d="M30.8,59.7c-9.1,0-16.4-7.4-16.4-16.4c0-8.5,14.5-40.6,15.1-42c0.2-0.5,0.7-0.8,1.3-0.8s1.1,0.3,1.3,0.8
		c0.6,1.4,15.1,33.5,15.1,42C47.3,52.4,39.9,59.7,30.8,59.7z M30.8,5.4c-4.7,10.7-13.6,32-13.6,37.9c0,7.5,6.1,13.6,13.6,13.6
		s13.6-6.1,13.6-13.6C44.4,37.4,35.6,16.1,30.8,5.4z"/>
	<path class="st0" d="M29.8,53.7c-0.1,0-0.1,0-0.2,0c-5.3-0.6-9.3-5-9.3-10.4c0-0.3,0-0.7,0.1-1.1c0.1-0.8,0.8-1.3,1.6-1.2
		c0.8,0.1,1.3,0.8,1.2,1.6c0,0.3-0.1,0.5-0.1,0.7c0,3.9,2.9,7.1,6.7,7.5c0.8,0.1,1.3,0.8,1.3,1.6C31.2,53.1,30.6,53.7,29.8,53.7z"/>
</g>
</svg>
