<?xml version="1.0" encoding="utf-8"?>
<!-- Generator: Adobe Illustrator 26.0.3, SVG Export Plug-In . SVG Version: 6.00 Build 0)  -->
<svg version="1.1" id="Réteg_1" xmlns="http://www.w3.org/2000/svg" xmlns:xlink="http://www.w3.org/1999/xlink" x="0px" y="0px"
	 viewBox="0 0 60 60" style="enable-background:new 0 0 60 60;" xml:space="preserve">
<g>
	<path d="M30.8,44c-7.7,0-13.9-6.2-13.9-13.9s6.2-13.9,13.9-13.9c7.7,0,13.9,6.2,13.9,13.9S38.5,44,30.8,44z M30.8,19
		c-6.1,0-11.1,5-11.1,11.1c0,6.1,5,11.1,11.1,11.1s11.1-5,11.1-11.1C41.9,24,37,19,30.8,19z"/>
	<path d="M30.8,12.6c-0.8,0-1.4-0.6-1.4-1.4V3.6c0-0.8,0.6-1.4,1.4-1.4s1.4,0.6,1.4,1.4v7.7C32.3,12,31.6,12.6,30.8,12.6z"/>
	<path d="M14.5,22.1c-0.2,0-0.5-0.1-0.7-0.2l-6.6-3.8c-0.7-0.4-0.9-1.3-0.5-1.9s1.3-0.9,1.9-0.5l6.6,3.8c0.7,0.4,0.9,1.3,0.5,1.9
		C15.5,21.8,15,22.1,14.5,22.1z"/>
	<path d="M7.9,44.8c-0.5,0-1-0.3-1.2-0.7c-0.4-0.7-0.2-1.5,0.5-1.9l6.6-3.8c0.7-0.4,1.5-0.2,1.9,0.5c0.4,0.7,0.2,1.5-0.5,1.9
		l-6.6,3.8C8.4,44.7,8.1,44.8,7.9,44.8z"/>
	<path d="M30.8,58c-0.8,0-1.4-0.6-1.4-1.4V49c0-0.8,0.6-1.4,1.4-1.4s1.4,0.6,1.4,1.4v7.7C32.3,57.4,31.6,58,30.8,58z"/>
	<path d="M53.8,44.8c-0.2,0-0.5-0.1-0.7-0.2l-6.6-3.8c-0.7-0.4-0.9-1.3-0.5-1.9c0.4-0.7,1.3-0.9,1.9-0.5l6.6,3.8
		c0.7,0.4,0.9,1.3,0.5,1.9C54.8,44.5,54.3,44.8,53.8,44.8z"/>
	<path d="M47.2,22.1c-0.5,0-1-0.3-1.2-0.7c-0.4-0.7-0.2-1.5,0.5-1.9l6.6-3.8c0.7-0.4,1.5-0.2,1.9,0.5c0.4,0.7,0.2,1.5-0.5,1.9
		l-6.6,3.8C47.7,22,47.4,22.1,47.2,22.1z"/>
</g>
</svg>
