<?xml version="1.0" encoding="utf-8"?>
<!-- Generator: Adobe Illustrator 26.0.3, SVG Export Plug-In . SVG Version: 6.00 Build 0)  -->
<svg version="1.1" id="Réteg_1" xmlns="http://www.w3.org/2000/svg" xmlns:xlink="http://www.w3.org/1999/xlink" x="0px" y="0px"
	 viewBox="0 0 60 60" style="enable-background:new 0 0 60 60;" xml:space="preserve">
<style type="text/css">
	.st0{fill:#1D1D1B;}
</style>
<g>
	<path class="st0" d="M14.6,39.6c-0.8,0-1.4,0.6-1.4,1.4s0.6,1.4,1.4,1.4h32.4c0.8,0,1.4-0.6,1.4-1.4s-0.6-1.4-1.4-1.4h-18
		c0.4-6.1,3.2-9.4,4.2-10.3c5.4-0.1,10.4-3,13.2-7.8c2.8-4.9,2.8-11-0.2-15.8C46,5.3,45.5,5,45,5c-5.6-0.1-10.9,2.9-13.8,7.8
		c-0.2,0.3-0.3,0.6-0.5,0.9c-0.2-0.3-0.4-0.5-0.7-0.8c-4-4-9.9-5.5-15.3-3.9c-0.5,0.1-0.8,0.5-1,1c-1.6,5.4-0.1,11.3,3.9,15.3
		c3,3,6.9,4.5,11,4.5c0.2,0,0.3,0,0.5,0c-1.3,2.1-2.7,5.3-3,9.8H14.6z M44.2,7.9c2,3.8,1.9,8.4-0.3,12.2v0
		c-2.2,3.8-6.1,6.1-10.4,6.3c0-0.1-0.1-0.2-0.1-0.3c-0.1-0.2-0.2-0.3-0.2-0.5c-0.1-0.2-0.2-0.4-0.3-0.6c-0.1-0.2-0.1-0.4-0.2-0.5
		c-0.1-0.2-0.1-0.4-0.2-0.7c0-0.2-0.1-0.4-0.1-0.6c0-0.2-0.1-0.4-0.1-0.7c0-0.2-0.1-0.4-0.1-0.6c0-0.2,0-0.4-0.1-0.7
		c0-0.2,0-0.4,0-0.6c0-0.2,0-0.4,0-0.7c0-0.2,0-0.4,0-0.6c0-0.2,0.1-0.5,0.1-0.7c0-0.2,0-0.4,0.1-0.5c0.1-0.4,0.2-0.8,0.3-1.2
		c0,0,0,0,0,0c0.3-1,0.7-1.9,1.2-2.8C35.9,10.4,39.9,8,44.2,7.9z M19.8,23.3c-3.1-3.1-4.4-7.5-3.4-11.7c4.2-0.9,8.7,0.3,11.7,3.4
		c0.6,0.6,1.1,1.2,1.6,1.9c-0.1,0.2-0.1,0.4-0.1,0.6c0,0.2-0.1,0.3-0.1,0.5c-0.1,0.5-0.1,0.9-0.2,1.4c0,0,0,0,0,0c0,0.5,0,1,0,1.5
		c0,0.1,0,0.3,0,0.4c0,0.3,0,0.7,0.1,1c0,0.2,0,0.3,0.1,0.5c0.1,0.3,0.1,0.7,0.2,1c0,0.1,0.1,0.3,0.1,0.4c0.2,0.9,0.5,1.8,0.9,2.6
		C26.6,27.4,22.6,26.1,19.8,23.3z"/>
	<path class="st0" d="M47.1,46H14.6c-0.8,0-1.4,0.6-1.4,1.4s0.6,1.4,1.4,1.4h32.4c0.8,0,1.4-0.6,1.4-1.4S47.8,46,47.1,46z"/>
	<path class="st0" d="M47.1,52.3H14.6c-0.8,0-1.4,0.6-1.4,1.4s0.6,1.4,1.4,1.4h32.4c0.8,0,1.4-0.6,1.4-1.4S47.8,52.3,47.1,52.3z"/>
</g>
</svg>
