<?xml version="1.0" encoding="utf-8"?>
<!-- Generator: Adobe Illustrator 26.0.3, SVG Export Plug-In . SVG Version: 6.00 Build 0)  -->
<svg version="1.1" id="Réteg_1" xmlns="http://www.w3.org/2000/svg" xmlns:xlink="http://www.w3.org/1999/xlink" x="0px" y="0px"
	 viewBox="0 0 60 60" style="enable-background:new 0 0 60 60;" xml:space="preserve">
<style type="text/css">
	.st0{fill:#1D1D1B;}
</style>
<g>
	<path class="st0" d="M32.1,38.5V14.8c0-1.2-1-2.1-2.1-2.1h0c-1.2,0-2.1,1-2.1,2.1v23.6c-3.1,0.9-5.4,3.8-5.4,7.2
		c0,4.1,3.4,7.5,7.5,7.5s7.5-3.4,7.5-7.5C37.5,42.2,35.2,39.4,32.1,38.5z"/>
	<path class="st0" d="M37.9,34.2v-26c0-4.4-3.5-7.9-7.9-7.9S22,3.9,22,8.3v26c-3.6,2.5-6,6.7-6,11.4c0,7.7,6.2,13.9,13.9,13.9
		s13.9-6.2,13.9-13.9C43.9,40.9,41.5,36.7,37.9,34.2z M30,56.7c-6.1,0-11.1-5-11.1-11.1c0-3.3,1.5-6.3,3.8-8.4
		c0.7-0.6,1.4-1.1,2.2-1.5V8.3c0-2.8,2.3-5.1,5.1-5.1S35,5.5,35,8.3v27.6c0.8,0.4,1.5,0.9,2.2,1.5c2.3,2,3.8,5,3.8,8.4
		C41,51.8,36.1,56.7,30,56.7z"/>
</g>
</svg>
